<svg xmlns="http://www.w3.org/2000/svg" style="display: none;">
  <symbol id="html5" viewBox="0 0 24 24">
    <path fill="currentColor" d="M1.5 0h21l-1.91 21.563L11.977 24l-8.564-2.438L1.5 0zm7.031 9.75l-.232-2.718 10.059.003.23-2.622L5.412 4.41l.698 8.01h9.126l-.326 3.426-2.91.804-2.955-.81-.188-2.11H6.248l.33 4.171L12 19.351l5.379-1.443.744-8.157H8.531z"/>
  </symbol>
  
  <symbol id="css3" viewBox="0 0 24 24">
    <path fill="currentColor" d="M1.5 0h21l-1.91 21.563L11.977 24l-8.565-2.438L1.5 0zm17.09 4.413L5.41 4.41l.213 2.622 10.125.002-.255 2.716h-6.64l.24 2.573h6.182l-.366 3.523-2.91.804-2.956-.81-.188-2.11h-2.61l.29 3.855L12 19.288l5.373-1.53L18.59 4.414v-.001z"/>
  </symbol>
  
  <symbol id="javascript" viewBox="0 0 24 24">
    <path fill="currentColor" d="M0 0h24v24H0V0zm22.034 18.276c-.175-1.095-.888-2.015-3.003-2.873-.736-.345-1.554-.585-1.797-1.14-.091-.33-.105-.51-.046-.705.15-.646.915-.84 1.515-.66.39.12.75.42.976.9 1.034-.676 1.034-.676 1.755-1.125-.27-.42-.404-.601-.586-.78-.63-.705-1.469-1.065-2.834-1.034l-.705.089c-.676.165-1.32.525-1.71 1.005-1.14 1.291-.811 3.541.569 4.471 1.365 1.02 3.361 1.244 3.616 2.205.24 1.17-.87 1.545-1.966 1.41-.811-.18-1.26-.586-1.755-1.336l-1.83 1.051c.21.48.45.689.81 1.109 1.74 1.756 6.09 1.666 6.871-1.004.029-.09.24-.705.074-1.65l.046.067zm-8.983-7.245h-2.248c0 1.938-.009 3.864-.009 5.805 0 1.232.063 2.363-.138 2.711-.33.689-1.18.601-1.566.48-.396-.196-.597-.466-.83-.855-.063-.105-.11-.196-.127-.196l-1.825 1.125c.305.63.75 1.172 1.324 1.517.855.51 2.004.675 3.207.405.783-.226 1.458-.691 1.811-1.411.51-.93.402-2.07.397-3.346.012-2.054 0-4.109 0-6.179l.004-.056z"/>
  </symbol>
  
  <symbol id="typescript" viewBox="0 0 24 24">
    <path fill="currentColor" d="M1.125 0C.502 0 0 .502 0 1.125v21.75C0 23.498.502 24 1.125 24h21.75c.623 0 1.125-.502 1.125-1.125V1.125C24 .502 23.498 0 22.875 0H1.125zM5.625 13.5v3c.903 0 2.25.176 3.1.866v-2.73C7.959 13.773 6.525 13.5 5.625 13.5zm11.614-1.657c-1.313 0-2.328.45-2.936.975-.645.57-1.027 1.305-1.166 2.046l2.295.264c.9-.675.305-.855.568-1.035.263-.18.637-.285 1.1-.285.551 0 .955.101 1.192.3.201.17.331.351.393.57.077.27.072.547.07.853v.15c-1.21.046-2.154.169-2.935.369-.8.203-1.456.525-1.903.945-.476.444-.731 1.055-.731 1.8 0 .72.249 1.317.75 1.766.496.446 1.186.664 2.032.664.536 0 1.003-.089 1.402-.266.394-.175.736-.437 1.02-.79.016.264.052.49.109.676.063.191.145.345.27.47l2.383-.03c-.045-.138-.086-.275-.114-.42-.03-.15-.049-.356-.049-.661v-3.345c0-.505-.05-.936-.15-1.29-.102-.358-.285-.66-.54-.915-.258-.253-.59-.448-1.012-.597-.405-.152-.915-.228-1.526-.228zm6.559-.113H20.75v6.97h3.056l-.008-6.97z"/>
  </symbol>
  
  <symbol id="react" viewBox="0 0 24 24">
    <path fill="currentColor" d="M14.23 12.004a2.236 2.236 0 0 1-2.235 2.236 2.236 2.236 0 0 1-2.236-2.236 2.236 2.236 0 0 1 2.235-2.236 2.236 2.236 0 0 1 2.236 2.236zm2.648-10.69c-1.346 0-3.107.96-4.888 2.622-1.78-1.653-3.542-2.602-4.887-2.602-.41 0-.783.093-1.106.278-1.375.793-1.683 3.264-.973 6.365C1.98 8.917 0 10.42 0 12.004c0 1.59 1.99 3.097 5.043 4.03-.704 3.113-.39 5.588.988 6.38.32.187.69.275 1.102.275 1.345 0 3.107-.96 4.888-2.624 1.78 1.654 3.542 2.603 4.887 2.603.41 0 .783-.09 1.106-.275 1.374-.792 1.683-3.263.973-6.365C22.02 15.096 24 13.59 24 12.004c0-1.59-1.99-3.097-5.043-4.032.704-3.11.39-5.587-.988-6.38a2.167 2.167 0 0 0-1.092-.278zm-.005 1.09v.006c.225 0 .406.044.558.127.666.382.955 1.835.73 3.704-.054.46-.142.945-.25 1.44a23.476 23.476 0 0 0-3.107-.534A23.892 23.892 0 0 0 12.769 4.7c1.592-1.48 3.087-2.292 4.105-2.295zm-9.77.02c1.012 0 2.514.808 4.11 2.28-.686.72-1.37 1.537-2.02 2.442a22.73 22.73 0 0 0-3.113.538 15.02 15.02 0 0 1-.254-1.42c-.23-1.868.054-3.32.714-3.707.19-.09.4-.127.563-.132zm4.882 3.05c.455.468.91.992 1.36 1.564-.44-.02-.89-.034-1.345-.034-.46 0-.915.01-1.36.034.44-.572.895-1.096 1.345-1.565zM12 8.1c.74 0 1.477.034 2.202.093.406.582.802 1.203 1.183 1.86.372.64.71 1.29 1.018 1.946-.308.655-.646 1.31-1.013 1.95-.38.66-.773 1.288-1.18 1.87a25.64 25.64 0 0 1-4.412.005 26.64 26.64 0 0 1-1.183-1.86c-.372-.64-.71-1.29-1.018-1.946a25.17 25.17 0 0 1 1.013-1.954c.38-.66.773-1.286 1.18-1.868A25.245 25.245 0 0 1 12 8.098zm-3.635.254c-.24.377-.48.763-.704 1.16-.225.39-.435.782-.635 1.174-.265-.656-.49-1.31-.676-1.947.64-.15 1.315-.283 2.015-.386zm7.26 0c.695.103 1.365.23 2.006.387-.18.632-.405 1.282-.66 1.933a25.952 25.952 0 0 0-1.345-2.32zm3.063.675c.484.15.944.317 1.375.498 1.732.74 2.852 1.708 2.852 2.476-.005.768-1.125 1.74-2.857 2.475-.42.18-.88.342-1.355.493a23.966 23.966 0 0 0-1.1-2.98c.45-1.017.81-2.01 1.085-2.964zm-13.395.004c.278.96.645 1.957 1.1 2.98a23.142 23.142 0 0 0-1.086 2.964c-.484-.15-.944-.318-1.37-.5-1.732-.737-2.852-1.706-2.852-2.474 0-.768 1.12-1.742 2.852-2.476.42-.18.88-.342 1.356-.494zm11.678 4.28c.265.657.49 1.312.676 1.948-.64.157-1.316.29-2.016.39a25.819 25.819 0 0 0 1.341-2.338zm-9.945.02c.2.392.41.783.64 1.175.23.39.465.772.705 1.143a22.005 22.005 0 0 1-2.006-.386c.18-.636.406-1.287.66-1.933zM17.92 16.32c.112.493.2.968.254 1.423.23 1.868-.054 3.32-.714 3.708-.147.09-.338.128-.563.128-1.012 0-2.514-.807-4.11-2.28.686-.72 1.37-1.536 2.02-2.44 1.107-.118 2.154-.3 3.113-.54zm-11.83.01c.96.234 2.006.415 3.107.532.66.905 1.345 1.727 2.035 2.446-1.595 1.483-3.092 2.295-4.11 2.295a1.185 1.185 0 0 1-.553-.132c-.666-.38-.955-1.834-.73-3.703.054-.46.142-.944.25-1.438zm4.56.64c.44.02.89.034 1.345.034.46 0 .915-.01 1.36-.034-.44.572-.895 1.095-1.345 1.565-.455-.47-.91-.993-1.36-1.565z"/>
  </symbol>
  
  <symbol id="reactquery" viewBox="0 0 24 24">
    <path fill="currentColor" d="m13.964 8.53 4.747 2.7-4.747 2.7v-2.016l2.731-1.323c.134-.06.222-.192.222-.336 0-.145-.088-.276-.222-.337L13.964 8.6V8.53zm-3.224 0v2.015l-2.731 1.323c-.134.06-.222.192-.222.337 0 .144.088.276.222.336l2.731 1.323v2.016l-4.746-2.7 4.746-2.7zM8.217 3.33H4.6V0H1.8v3.33h3.599v2.015h-3.6V6.66h3.6v1.8H1.8v3.33h3.599V10.2h3.6V7.485H5.4v-1.8h3.599V3.33H5.4V1.8h2.817V0H5.4v1.8H4.5V3.33h3.717zm13.19-.982c.604 0 1.209.113 1.746.339.65.282 1.205.671 1.675 1.162a5.31 5.31 0 0 1 1.24 1.873c.29.772.435 1.53.435 2.278 0 1.167-.339 2.235-.945 3.178-.443.689-1.037 1.344-1.9 2.091-.863.731-1.779 1.373-2.644 1.924-.314.2-.741.477-1.269.813-.528.337-1.14.69-1.78 1.042-.64.353-1.277.691-1.85.97s-1.041.488-1.386.603l-.944-1.515c.302-.173.672-.377 1.098-.612.442-.25.92-.531 1.419-.845.52-.329 1.041-.683 1.561-1.048.52-.366.96-.7 1.304-1.022.344-.32.548-.528.645-.636.965-.887 1.775-1.702 2.384-2.458.615-.748.925-1.638.925-2.63 0-.536-.098-1.001-.287-1.397a2.818 2.818 0 0 0-.789-1.022 3.347 3.347 0 0 0-1.154-.611 4.82 4.82 0 0 0-1.376-.207c-.965 0-1.877.236-2.71.698-.837.462-1.553 1.028-2.147 1.698l-1.47-1.267c.745-.829 1.646-1.52 2.691-2.065 1.057-.551 2.185-.822 3.384-.822z"/>
  </symbol>
  
  <symbol id="nodejs" viewBox="0 0 24 24">
    <path fill="currentColor" d="M11.998 24c-.321 0-.641-.084-.922-.251l-2.936-1.738c-.439-.245-.225-.332-.08-.382.586-.204.705-.25 1.33-.605.066-.038.153-.024.221.015l2.256 1.339a.298.298 0 0 0 .273 0l8.795-5.076a.277.277 0 0 0 .134-.235V6.921a.282.282 0 0 0-.136-.242l-8.791-5.072a.297.297 0 0 0-.271 0L3.075 6.68a.284.284 0 0 0-.139.241v10.15a.27.27 0 0 0 .139.235l2.409 1.392c1.307.654 2.108-.116 2.108-.89V7.787c0-.142.114-.253.256-.253h1.115c.139 0 .255.112.255.253v10.021c0 1.745-.95 2.745-2.604 2.745-.508 0-.909 0-2.026-.55L2.28 18.675a1.856 1.856 0 0 1-.922-1.604V6.921c0-.659.353-1.275.922-1.603L11.075.236a1.925 1.925 0 0 1 1.848 0l8.794 5.082c.57.329.924.944.924 1.603v10.15a1.86 1.86 0 0 1-.924 1.604l-8.794 5.078c-.28.163-.599.247-.925.247zm2.719-6.977c-3.85 0-4.655-1.771-4.655-3.25 0-.141.114-.253.255-.253h1.137c.127 0 .233.092.253.218.172 1.161.683 1.744 3.01 1.744 1.853 0 2.641-.419 2.641-1.402 0-.566-.225-.986-3.104-1.268-2.408-.238-3.896-.77-3.896-2.694 0-1.775 1.497-2.831 4.004-2.831 2.815 0 4.201.977 4.377 3.077a.257.257 0 0 1-.256.278h-1.141a.252.252 0 0 1-.246-.207c-.275-1.218-.94-1.607-2.734-1.607-2.013 0-2.246.701-2.246 1.226 0 .636.275.823 3.009 1.184 2.705.358 3.995.863 3.995 2.766 0 1.918-1.6 3.019-4.403 3.019z"/>
  </symbol>
  
  <symbol id="express" viewBox="0 0 24 24">
    <path fill="currentColor" d="M24 18.588a1.529 1.529 0 0 1-1.895-.72l-3.45-4.771-.5-.667-4.003 5.444a1.466 1.466 0 0 1-1.802.708l5.158-6.92-4.798-6.251a1.595 1.595 0 0 1 1.9.666l3.576 4.83 3.596-4.81a1.435 1.435 0 0 1 1.788-.668L21.708 7.9l-2.522 3.283a.666.666 0 0 0 0 .994l4.804 6.412zM.002 11.576l.42-2.075c1.154-4.103 5.858-5.81 9.094-3.27 1.895 1.489 2.368 3.597 2.275 5.973H1.116C.943 16.447 4.005 19.009 7.92 17.7a4.078 4.078 0 0 0 1.605-5.34h2.02c.387 4.477-1.14 6.59-4.82 7.2-4.368.73-8.203-1.678-8.82-6.143l.546-.072h2.27a1.075 1.075 0 0 0-.546 1.205Z"/>
  </symbol>
  
  <symbol id="jwt" viewBox="0 0 24 24">
    <path fill="currentColor" d="M10.2 0v6.456L12 8.256l1.8-1.8V0zm3.6 6.456v3.6l5.4-5.4-1.8-1.8zm-7.2 0 1.8 1.8 1.8-1.8-1.8-1.8zM10.2 24v-6.456L8.4 15.744l-1.8 1.8V24zm-3.6-6.456v-3.6l-5.4 5.4 1.8 1.8zm7.2 0-1.8-1.8-1.8 1.8 1.8 1.8zM0 10.2h6.456L8.256 12l-1.8 1.8H0zm6.456 3.6h3.6l-5.4-5.4-1.8 1.8zm0-7.2 1.8-1.8-1.8-1.8-1.8 1.8zM24 13.8h-6.456L15.744 12l1.8-1.8H24zm-6.456-3.6h-3.6l5.4 5.4 1.8-1.8zm0 7.2-1.8 1.8 1.8 1.8 1.8-1.8zM12 10.8l-1.2 1.2 1.2 1.2 1.2-1.2z"/>
  </symbol>
  
  <symbol id="jest" viewBox="0 0 24 24">
    <path fill="currentColor" d="M22.251 11.82a3.117 3.117 0 0 0-2.328-3.01L22.911 0H8.104L11.1 8.838a3.116 3.116 0 0 0-2.244 2.988c0 1.043.52 1.967 1.313 2.536a8.279 8.279 0 0 1-1.084 1.244 8.14 8.14 0 0 1-2.55 1.647c-.834-.563-1.195-1.556-.869-2.446a3.11 3.11 0 0 0-.91-6.08 3.117 3.117 0 0 0-3.113 3.113c0 .848.347 1.626.903 2.182-.048.097-.097.195-.146.299-.465.959-.993 2.043-1.195 3.259-.403 2.432.257 4.384 1.849 5.489A5.093 5.093 0 0 0 5.999 24c1.827 0 3.682-.917 5.475-1.807 1.279-.632 2.599-1.292 3.898-1.612.48-.118.98-.187 1.508-.264 1.07-.153 2.175-.312 3.168-.89a4.482 4.482 0 0 0 2.182-3.091c.174-.994 0-1.994-.444-2.87.298-.48.465-1.042.465-1.647zm-1.355 0c0 .965-.785 1.75-1.75 1.75a1.753 1.753 0 0 1-1.085-3.126l.007-.007c.056-.042.118-.084.18-.125 0 0 .008 0 .008-.007.028-.014.055-.035.083-.05.007 0 .014-.006.021-.006.028-.014.063-.028.097-.042.035-.014.07-.027.098-.041.007 0 .013-.007.02-.007.028-.007.056-.021.084-.028.007 0 .02-.007.028-.007.034-.007.062-.014.097-.02h.007l.104-.022c.007 0 .02 0 .028-.007.028 0 .055-.007.083-.007h.035c.035 0 .07-.007.111-.007h.09c.028 0 .05 0 .077.007h.014c.055.007.111.014.167.028a1.766 1.766 0 0 1 1.396 1.723zM10.043 1.39h10.93l-2.509 7.4c-.104.02-.208.055-.312.09l-2.64-5.385-2.648 5.35c-.104-.034-.216-.055-.327-.076l-2.494-7.38zm4.968 9.825a3.083 3.083 0 0 0-.938-1.668l1.438-2.904 1.452 2.967c-.43.43-.729.98-.868 1.605H15.01zm-3.481-1.098c.034-.007.062-.014.097-.02h.02c.029-.008.056-.008.084-.015h.028c.028 0 .049-.007.076-.007h.271c.028 0 .049.007.07.007.014 0 .02 0 .035.007.027.007.048.007.076.014.007 0 .014 0 .028.007l.097.02h.007c.028.008.056.015.083.029.007 0 .014.007.028.007.021.007.049.014.07.027.007 0 .014.007.02.007.028.014.056.021.084.035h.007a.374.374 0 0 1 .09.049h.007c.028.014.056.034.084.048.007 0 .007.007.013.007.028.014.05.035.077.049l.007.007c.083.062.16.132.236.201l.007.007a1.747 1.747 0 0 1 .48 1.209 1.752 1.752 0 0 1-3.502 0 1.742 1.742 0 0 1 1.32-1.695zm-6.838-.049c.966 0 1.751.786 1.751 1.751s-.785 1.751-1.75 1.751-1.752-.785-1.752-1.75.786-1.752 1.751-1.752zm16.163 6.025a3.07 3.07 0 0 1-1.508 2.133c-.758.438-1.689.577-2.669.716a17.29 17.29 0 0 0-1.64.291c-1.445.355-2.834 1.05-4.182 1.717-1.724.854-3.35 1.66-4.857 1.66a3.645 3.645 0 0 1-2.154-.688c-1.529-1.056-1.453-3.036-1.272-4.12.167-1.015.632-1.966 1.077-2.877.028-.055.049-.104.077-.16.09.104.181.208.278.312.28.347.59.655.91.938.33.32.69.606 1.07.86.396.247.794.452 1.203.626.409.174.826.295 1.244.384.418.09.848.132 1.292.132a5.63 5.63 0 0 0 1.292-.132c.418-.09.836-.21 1.244-.384.41-.174.807-.38 1.204-.625a7.13 7.13 0 0 0 1.069-.861c.329-.32.636-.628.91-.938.098-.104.188-.208.28-.312.027.056.048.104.076.16.445.91.91 1.862 1.077 2.877.18 1.084.257 3.064-1.272 4.12zM13.5 6.25c0 .69-.56 1.25-1.25 1.25s-1.25-.56-1.25-1.25.56-1.25 1.25-1.25 1.25.56 1.25 1.25z"/>
  </symbol>
  
  <symbol id="postgresql" viewBox="0 0 24 24">
    <path fill="currentColor" d="M23.5594 14.7228a.5269.5269 0 0 0-.0563-.1191c-.139-.2632-.4768-.3418-1.0074-.2321-1.6533.3411-2.2935.1312-2.5256-.0191 1.342-2.0482 2.445-4.522 3.0411-6.7574.2714-1.0163.7982-3.4231-.7788-4.8858-1.4746-1.3716-3.644-1.5153-4.0997-1.5352-1.7137-.1093-2.9335.3134-3.6405.6812-.5204-.1122-1.0697-.1855-1.6544-.2143-1.535-.0769-2.6734.1893-3.4163.4371-1.9511-.7171-3.6188-.091-4.246.1577C3.9761 2.5941 2.1375 4.3365 1.184 6.5624.2336 8.7856-.5698 13.6359 3.1678 16.6031c.6961.5536 2.0428 1.3757 4.2093 1.5153.2714.6465.7391 1.4655 1.4155 2.0604.7156.6328 1.7661 1.2364 3.2302 1.2605 1.0782.0219 2.0407-.2436 2.8547-.796 1.1829-.2986 3.1-.9558 4.5376-1.9097 1.2814-.8487 1.8294-1.9097 1.8391-1.9267a.502.502 0 0 0 .0875-.1962l.348-1.9809a.5212.5212 0 0 0-.0832-.3455zm-1.8683.7228c-.0393.0501-.5222.6543-1.6166 1.3869-1.3392.8968-3.2384 1.5424-4.4013 1.8316a.5183.5183 0 0 0-.3288.2248c-.0455.0722-.5004.7875-1.9723.7875-1.0346 0-1.8431-.465-2.404-.9749-.559-.51-.9397-1.1445-1.1495-1.6122-.0798-.1783-.1275-.3364-.1495-.4263-.0296-.12-.0223-.1809-.0086-.2092a.5.5 0 0 0 .0362-.3976c-.0381-.1442-.0998-.2394-.0998-.2394s-.2714.0996-.4373.2248c-.1658.1254-.2934.2946-.2934.2946s-.0628.0694-.1756.1738c-.1128.1046-.2995.2414-.5553.3684-.2555.127-.6959.2987-1.3106.2436-.615-.0543-1.0346-.3568-1.2916-.5788-1.1358-.982-1.594-2.2814-1.6689-2.5418-.0748-.2602-.0834-.394-.0834-.394s1.0259.7734 2.4991.9631c.8359.1076 1.759.0167 2.5525-.1397.4542-.0891.8545-.1747 1.2374-.2636.8674-.2019 1.6514-.4007 2.4902-.401.7767 0 1.6032.2188 2.5885.8831l.0121.0083a1.3219 1.3219 0 0 0 .0681.1393c.2241.4113.8855.5447 1.3802.5988 1.209.1337 2.2169-.1676 2.9416-.4745a3.3336 3.3336 0 0 0 .6006-.3065l.0862-.0526-.344 1.9553zm-6.533-6.8957c.6344-.0003 1.1994.2171 1.5646.6643.3651.4473.5268 1.0809.4257 1.8379-.2129 1.5877-1.0437 2.0236-1.9494 2.2367-.9057.213-1.9703.1303-2.5898.0156-.6536-.1211-1.7595-.4457-1.9305-1.3098-.1216-.6187-.0128-1.1994.2232-1.7427a3.6565 3.6565 0 0 1 .9385-1.213c.3892-.336.8566-.5367 1.3278-.631.1757-.0352.3534-.0607.5309-.0803.1769-.0194.3533-.029.5283-.0307.0302-.0002.0598-.0002.0894-.0002l-.0144.0002zm-9.3891.4671c.4655-.5272 1.2987-.6266 1.6859-.6108.387.0158 1.2799.089 1.7448.6266.4648.5376.6544 1.2308.5061 2.2141-.1482.9835-.8375 1.9661-1.733 2.5-1.0413.622-1.8642.5489-2.2636.4572-.3993-.0917-1.1594-.3845-1.34-1.3475-.1805-.9628.0356-1.9983.4998-2.7345.232-.3668.5336-.7359.8999-1.1051z"/>
  </symbol>
  
  <symbol id="mysql" viewBox="0 0 24 24">
    <path fill="currentColor" d="M16.405 5.501c-.115 0-.193.014-.274.033v.013h.014c.054.104.146.18.214.273.054.107.1.214.154.32l.014-.015c.094-.066.14-.172.14-.333-.04-.047-.046-.094-.08-.14-.04-.067-.126-.1-.18-.153zM5.77 18.695h-.927a50.854 50.854 0 0 0-.27-4.41h-.008l-1.41 4.41H2.45l-1.4-4.41h-.01a72.892 72.892 0 0 0-.195 4.41H0c.055-1.966.192-3.81.41-5.53h1.15l1.335 4.064h.008l1.347-4.064h1.095c.242 2.015.384 3.86.428 5.53zm4.017-4.08c-.378 2.045-.876 3.533-1.492 4.46-.482.716-1.01 1.073-1.583 1.073-.153 0-.34-.046-.566-.138v-.494c.11.017.24.026.386.026.268 0 .483-.075.647-.222.197-.18.295-.382.295-.605 0-.155-.077-.47-.23-.944L6.23 14.615h.91l.727 2.36c.164.536.233.91.205 1.123.4-1.064.678-2.227.835-3.483zm12.325 4.08h-2.63v-5.53h.885v4.85h1.745zm-3.32.135l-1.016-.5c.09-.076.177-.158.255-.25.433-.506.648-1.258.648-2.253 0-1.83-.718-2.746-2.155-2.746-.704 0-1.254.232-1.65.697-.43.508-.646 1.256-.646 2.245 0 .972.19 1.686.574 2.14.337.405.83.61 1.48.61.223 0 .43-.033.618-.1l1.13.558-.32.073zm-2.87-.577c-.495 0-.858-.17-1.088-.51-.23-.338-.346-.885-.346-1.64 0-1.462.334-2.192 1.002-2.192.21 0 .38.035.51.103.373.194.573.699.573 1.515 0 1.462-.319 2.193-.956 2.193-.086 0-.16-.01-.22-.025zm-3.383-1.018c0 .47-.172.856-.516 1.156-.344.3-.803.45-1.384.45-.52 0-1.02-.12-1.5-.359l.23-.544c.4.18.765.272 1.093.272.33 0 .59-.072.78-.22.18-.146.27-.355.27-.626 0-.333-.16-.61-.49-.829-.33-.22-.95-.562-1.87-1.027-.57-.285-.975-.58-1.217-.882-.243-.302-.364-.7-.364-1.194 0-.452.158-.84.476-1.16.315-.32.76-.48 1.333-.48.57 0 1.08.122 1.53.365l-.202.54c-.382-.17-.758-.255-1.126-.255-.325 0-.576.07-.753.207a.66.66 0 0 0-.267.54c0 .332.17.615.512.85.315.218.947.566 1.89 1.043.577.292.984.595 1.224.907.24.312.362.7.362 1.163zm-6.213-1.564h-3.193v2.355h3.193v.703H9.336v-5.53h4.44v.705h-3.193v1.767zm-5.506 4.352c-.697 0-1.265-.102-1.702-.305v-.845c.496.22 1.022.33 1.58.33.313 0 .552-.05.717-.15.163-.11.245-.242.245-.398 0-.162-.063-.28-.188-.352-.122-.072-.355-.175-.698-.31-.862-.323-1.293-.809-1.293-1.457 0-.42.155-.764.467-1.031.312-.268.751-.402 1.319-.402.539 0 1.03.094 1.473.283l-.273.678c-.405-.157-.812-.236-1.218-.236-.254 0-.452.054-.594.16a.5.5 0 0 0-.216.427c0 .147.07.266.205.35.135.09.363.192.685.302.444.167.765.356.967.567.2.21.301.479.301.806 0 .44-.164.798-.492 1.073-.33.276-.78.413-1.35.413zM10.6 16.465c0 .744-.215 1.33-.646 1.759-.43.428-1.026.642-1.788.642-.683 0-1.225-.2-1.627-.599-.401-.4-.602-.944-.602-1.63V13.22h.893v3.367c0 .957.399 1.436 1.199 1.436.823 0 1.235-.487 1.235-1.461V13.22h.892v3.245h.001zM7.58 12.608h-2.73c.233-1.242 1.282-2.057 2.73-2.057 1.448 0 2.497.815 2.73 2.057H7.58z"/>
  </symbol>
  
  <symbol id="sqlite" viewBox="0 0 24 24">
    <path fill="currentColor" d="M21.678.521c-1.032-.92-2.28-.55-3.513.111a8.386 8.386 0 0 0-.293.146c-2.177 1.21-4.356 2.429-6.52 3.664-1.575.896-3.12 1.846-4.67 2.788-1.194.728-2.41 1.426-3.582 2.184-1.154.747-2.31 1.516-3.335 2.465-.262.243-.566.56-.523.935.134 1.172 1.67 1.79 2.656 2.184 1.97.79 4.017 1.14 6.09 1.283 1.912.132 3.83.093 5.743.011 1.873-.08 3.728-.323 5.556-.72 2.896-.631 5.856-1.724 8.06-3.746.324-.297.59-.64.84-1.002.093-.134.181-.272.257-.417.764-1.46.708-3.106.159-4.632-.571-1.584-1.53-2.978-2.584-4.313-.34-.43-.733-.818-1.08-1.254-.08-.099-.134-.213-.202-.32-.272-.427-.756-.518-1.059-.148-.03.038-.081.064-.097.11-.094.241.063.5.202.666.233.277.437.58.646.883-1.333 2.191-2.692 4.358-4.216 6.423-.544.737-1.142 1.43-1.72 2.138.198.048.393.105.589.16.173.05.35.096.523.144.315.089.633.17.95.249.253.063.504.128.759.179.542.11 1.089.198 1.638.272.242.033.484.06.729.089.473.053.947.08 1.423.117.318.024.635.053.952.062.24.007.482.024.723.018a.992.992 0 0 0 .1-.023c-.152-.636-.391-1.24-.73-1.804.147-.318.295-.636.443-.954.175-.378.354-.755.528-1.133.135-.291.281-.577.394-.878.109-.29.308-.58.27-.903-.032-.27-.31-.448-.557-.483-.313-.044-.642.046-.92.17-.125.055-.174.191-.223.311-.125.314-.24.633-.363.95-.16.41-.32.822-.49 1.228-.157.377-.315.754-.483 1.126-.3.665-.617 1.32-.947 1.963a2.76 2.76 0 0 1-.134.24 4.24 4.24 0 0 1-.62-.209l-.104-.04c-.144-.053-.287-.107-.431-.162-.285-.109-.57-.22-.854-.332-.34-.135-.68-.274-1.018-.415-.211-.09-.423-.173-.634-.264-.072-.031-.18-.071-.239-.1-.333-.175-.577-.516-.921-.712a2.304 2.304 0 0 1-.165-.207 6.312 6.312 0 0 1-1.065-2.243c-.06-.221-.114-.447-.158-.671-.169-.855-.218-1.724-.189-2.592.043-1.237.254-2.47.642-3.642.32-.96.755-1.88 1.307-2.737a11.721 11.721 0 0 1 1.196-1.631c.4-.453.84-.865 1.305-1.242.452-.367.93-.706 1.443-.984.965-.526 2.01-.91 3.094-1.137.295-.062.601-.102.866-.217.26-.113.418-.413.305-.684-.097-.231-.378-.28-.614-.264-.156.01-.329.04-.477.081-.149.042-.294.093-.44.144-.198.07-.392.15-.584.235-.757.332-1.464.76-2.139 1.242-.768.548-1.496 1.159-2.11 1.864-.886 1.016-1.621 2.169-2.151 3.41-.586 1.372-.912 2.84-1.038 4.327-.134 1.575.005 3.156.45 4.667a11.042 11.042 0 0 0 1.457 3.073c.318.475.671.925 1.059 1.348a9.602 9.602 0 0 0 .953.889c.154.124.31.246.471.359.43.299.9.543 1.389.749 1.213.514 2.542.724 3.85.772 1.642.06 3.287-.089 4.91-.347 2.863-.456 5.708-1.284 8.33-2.553.188-.091.409-.168.52-.353.39-.652-.321-1.37-.855-1.712-.268-.172-.577-.26-.873-.372-.952-.36-1.915-.676-2.893-.949-1.962-.544-3.97-.9-5.988-1.177-1.087-.15-2.182-.262-3.28-.327-1.104-.064-2.209-.099-3.313-.082-.941.014-1.884.045-2.82.137-.188.019-.379.035-.566.063-.02.002-.4.006-.59.009a.997.997 0 0 0-.025-.094c-.073-.227-.151-.452-.241-.672-.022-.054-.05-.1-.064-.157.302-.348.617-.683.915-1.033.682-.798 1.375-1.587 2.01-2.426 1.003-1.326 1.963-2.682 2.864-4.079.507-.787.998-1.585 1.46-2.398.255-.449.488-.912.76-1.35.272-.435.562-.856.829-1.294.532-.873 1.285-1.958 1.945-2.75.585-.705 1.229-1.367 1.919-1.982.69-.613 1.445-1.152 2.221-1.657.57-.371 1.156-.718 1.75-1.057.154-.088.309-.178.464-.265.134-.075.277-.142.394-.246.15-.132.211-.34.146-.529a.478.478 0 0 0-.347-.296.497.497 0 0 0-.37.064 21.564 21.564 0 0 1-1.133.754c-.486.308-.979.604-1.48.884a21.77 21.77 0 0 0-1.909 1.22c-.51.357-.994.75-1.46 1.16-.446.392-.877.803-1.294 1.23a17.9 17.9 0 0 0-1.803 2.05c-.807 1.038-1.475 2.17-2.11 3.307-.297.53-.58 1.066-.859 1.606-.284.55-.567 1.1-.85 1.651-.296.574-.598 1.146-.883 1.725-.31.625-.595 1.26-.883 1.89.02-.498.019-.995.057-1.49.053-.694.144-1.383.273-2.068.142-.747.328-1.483.555-2.209.27-.868.594-1.721.997-2.531.256-.517.55-1.014.869-1.492.16-.24.33-.475.499-.709.164-.226.329-.448.496-.672.338-.454.674-.912.997-1.378.322-.467.63-.946.904-1.443.284-.519.524-1.062.659-1.642.085-.365.127-.738.121-1.113 0-.075-.007-.148-.01-.219z"/>
  </symbol>
</svg>